<?xml version="1.0" standalone="no"?>
<!DOCTYPE svg PUBLIC "-//W3C//DTD SVG 1.1//EN" "http://www.w3.org/Graphics/SVG/1.1/DTD/svg11.dtd" >
<svg xmlns="http://www.w3.org/2000/svg">
<metadata>
Created by FontPrep 20130207 at Mon Nov 14 11:26:41 2016
 By LatinoType 3
Copyright (c) 2013 by Rick Banks. All rights reserved.
</metadata>
<defs>
<font id="cd0eb1181545a540be3acd13cd87c831" horiz-adv-x='1024' >
  <font-face 
    font-family="F37Ginger-Regular"
    font-weight="400"
    font-stretch="normal"
    units-per-em="2048"
    panose-1="0 0 5 0 0 0 0 0 0 0"
    ascent="1638"
    descent="-410"
    x-height="973"
    cap-height="1516"
    bbox="-313 -537 2603 2042"
    underline-thickness="102"
    underline-position="-102"
    unicode-range="U+0020-FB02"
  />
<missing-glyph horiz-adv-x="1492" 
d="M1090 1305h-687v-1096h687v1096zM205 0v1516h1083v-1516h-1083z" />
    <glyph glyph-name="fi" unicode="fi" horiz-adv-x="1175" 
d="M911 1165q-53 0 -90 37t-37 90t37 90t90 37t90 -37t37 -90t-37 -90t-90 -37zM522 1331q-145 0 -145 -164v-194h633v-973h-197v786h-436v-786h-199v786h-143v187h143v225q0 146 73 232t226 86q88 0 162 -23v-176q-47 14 -117 14z" />
    <glyph glyph-name="fl" unicode="fl" horiz-adv-x="1202" 
d="M522 1331q-145 0 -145 -164v-194h436v543h197v-1207q0 -83 26 -117t94 -34q31 0 50 2v-172q-57 -14 -109 -15q-121 0 -189 71t-69 204v538h-436v-786h-199v786h-143v187h143v225q0 146 73 232t226 86q88 0 162 -23v-176q-47 14 -117 14z" />
    <glyph glyph-name=".notdef" horiz-adv-x="1492" 
d="M1090 1305h-687v-1096h687v1096zM205 0v1516h1083v-1516h-1083z" />
    <glyph glyph-name=".null" horiz-adv-x="0" 
 />
    <glyph glyph-name="nonmarkingreturn" horiz-adv-x="681" 
 />
    <glyph glyph-name="space" unicode=" " horiz-adv-x="552" 
 />
    <glyph glyph-name="exclam" unicode="!" horiz-adv-x="655" 
d="M328 -12q-53 0 -90 37t-37 90t37 89t90 36t90 -36t37 -89t-37 -90t-90 -37zM227 1516h205v-527l-51 -573h-102l-52 573v527z" />
    <glyph glyph-name="quotedbl" unicode="&#x22;" horiz-adv-x="888" 
d="M547 991l-31 525h219l-33 -525h-155zM184 991l-30 525h219l-33 -525h-156z" />
    <glyph glyph-name="numbersign" unicode="#" horiz-adv-x="1253" 
d="M807 946h-293l-39 -280h293zM61 502v164h246l39 278h-233v166h256l51 358h166l-49 -358h292l52 358h166l-50 -358h195v-164h-219l-39 -280h205v-164h-228l-53 -367h-166l51 367h-292l-54 -367h-166l52 367h-222z" />
    <glyph glyph-name="dollar" unicode="$" horiz-adv-x="1167" 
d="M856 416q0 125 -156 207v-435q74 30 115 92t41 136zM367 1150q0 -142 151 -218v403q-151 -43 -151 -185zM518 1681h182v-143q176 -20 322 -139l-117 -160q-96 82 -205 102v-487q135 -55 197 -98q61 -43 93 -84q75 -96 75 -256t-99 -278t-266 -152v-150h-182v141
q-281 27 -436 252l131 146q147 -182 305 -207v532q-82 35 -134 63q-150 81 -198 195q-29 70 -28 160q0 162 95 274t265 140v149z" />
    <glyph glyph-name="percent" unicode="%" horiz-adv-x="1865" 
d="M1376 137q88 -1 150 63t61 154q0 90 -61 152q-62 62 -150 61q-88 0 -149 -61q-61 -62 -61 -152t60 -154q62 -64 150 -63zM1763 354q-1 -158 -115 -270t-272 -113q-158 0 -272 113q-114 112 -115 270q0 158 115 271q114 113 272 113t273 -113q114 -113 114 -271zM489 952
q87 0 149 62t62 153t-61 153t-149 62t-150 -62q-61 -62 -61 -152t61 -154q61 -62 149 -62zM430 0l832 1516h178l-832 -1516h-178zM877 1167q0 -159 -115 -271t-273 -112q-159 0 -273 113t-114 271t115 270t273 112t272 -112q115 -112 115 -271z" />
    <glyph glyph-name="ampersand" unicode="&#x26;" horiz-adv-x="1325" 
d="M842 702h-219q-127 0 -214 -56t-87 -186t87 -198t226 -67h207v507zM614 0q-227 0 -364 123t-137 319q0 126 61 222t184 141q-100 47 -152 137t-52 197q0 167 120 285t294 118t288 -98l-104 -152q-76 64 -172 64t-158 -62t-64 -159q0 -98 70 -167t182 -69h232v244h209
v-244h172v-197h-172v-505h172v-197h-609z" />
    <glyph glyph-name="quotesingle" unicode="'" horiz-adv-x="526" 
d="M184 991l-30 525h219l-33 -525h-156z" />
    <glyph glyph-name="parenleft" unicode="(" horiz-adv-x="759" 
d="M311 565q0 -289 131 -504t297 -317l-96 -156q-204 118 -372 363q-167 245 -169 614q0 497 349 830q90 86 192 145l96 -158q-170 -102 -299 -315t-129 -502z" />
    <glyph glyph-name="parenright" unicode=")" horiz-adv-x="759" 
d="M657 565q0 -182 -47 -344q-47 -161 -129 -281q-158 -230 -364 -352l-97 156q166 102 297 317t131 504t-130 502t-298 315l97 158q204 -118 364 -350q82 -119 129 -281t47 -344z" />
    <glyph glyph-name="asterisk" unicode="*" horiz-adv-x="851" 
d="M489 1075l5 -217h-148l6 219l-188 -141l-74 123l199 123l-201 106l68 127l200 -117l-6 218h150l-8 -218l188 136l76 -123l-197 -119l211 -115l-74 -127z" />
    <glyph glyph-name="plus" unicode="+" horiz-adv-x="1290" 
d="M549 164v448h-447v191h447v448h190v-448h449v-191h-449v-448h-190z" />
    <glyph glyph-name="comma" unicode="," horiz-adv-x="663" 
d="M326 -12q-49 0 -85 36t-36 90t37 90t96 36t93 -48t34 -146t-65 -196t-169 -100v103q41 6 77 45t40 92q-6 -2 -22 -2z" />
    <glyph glyph-name="hyphen" unicode="-" horiz-adv-x="854" 
d="M133 459v188h588v-188h-588z" />
    <glyph glyph-name="period" unicode="." horiz-adv-x="661" 
d="M332 -12q-53 0 -90 37t-37 90t37 89t90 36t89 -36t36 -89t-36 -90t-89 -37z" />
    <glyph glyph-name="slash" unicode="/" horiz-adv-x="1038" 
d="M4 0l832 1516h196l-831 -1516h-197z" />
    <glyph glyph-name="zero" unicode="0" horiz-adv-x="1200" 
d="M881 967q0 167 -67 275t-213 108t-215 -106t-69 -277v-400q-1 -182 61 -293q62 -110 220 -110t220 106t63 297v400zM1087 553q-1 -250 -121 -415t-364 -165t-366 162t-123 418v442q0 231 127 389t357 158t360 -154t130 -393v-442z" />
    <glyph glyph-name="one" unicode="1" horiz-adv-x="768" 
d="M313 0v1317h-252v199h461v-1516h-209z" />
    <glyph glyph-name="two" unicode="2" horiz-adv-x="1146" 
d="M74 0v199l442 440q156 154 221 255q66 101 66 212q0 110 -71 184q-70 74 -182 74t-180 -68t-87 -194h-203q24 212 146 326t325 114t333 -115t130 -313q0 -143 -70 -268t-201 -256l-393 -393h649v-197h-925z" />
    <glyph glyph-name="three" unicode="3" horiz-adv-x="1222" 
d="M603 164q114 0 192 68t77 206q0 139 -85 209t-238 70v192h72q100 0 162 65t63 161q0 96 -62 158q-62 63 -163 63t-159 -74t-61 -182h-206q4 190 118 316q115 126 312 126t313 -115t115 -288q0 -229 -191 -326q227 -102 228 -364q0 -211 -136 -343t-345 -133
q-208 0 -339 131t-139 334h209q8 -130 78 -202t185 -72z" />
    <glyph glyph-name="four" unicode="4" horiz-adv-x="1220" 
d="M768 1188h-2l-465 -742h467v742zM768 0v258h-696v182l690 1076h211v-1070h155v-188h-155v-258h-205z" />
    <glyph glyph-name="five" unicode="5" horiz-adv-x="1210" 
d="M637 1012q215 0 353 -148t138 -369q0 -222 -148 -372t-362 -150t-357 132q-144 132 -169 335h209q18 -112 96 -194t214 -82t224 95q87 95 87 239t-86 237q-86 92 -239 92t-249 -108l-151 110l118 687h711l-10 -193h-533l-65 -362q96 51 219 51z" />
    <glyph glyph-name="six" unicode="6" horiz-adv-x="1191" 
d="M599 778q-128 0 -218 -91t-90 -218t90 -217t218 -90t215 90t87 218t-87 218t-215 90zM629 961q193 -1 332 -147t139 -349t-146 -347t-356 -144q-209 0 -357 142t-149 345q0 147 103 340l376 715h228l-303 -582q63 27 133 27z" />
    <glyph glyph-name="seven" unicode="7" horiz-adv-x="1085" 
d="M41 1317v199h932v-199l-600 -1317h-226l607 1317h-713z" />
    <glyph glyph-name="eight" unicode="8" horiz-adv-x="1286" 
d="M973 499q0 138 -95 237q-94 100 -234 100t-234 -100t-94 -237t94 -237t233 -100t235 99q95 100 95 238zM831 1151q0 86 -53 144q-53 59 -135 59t-135 -58t-53 -144q0 -85 55 -144q62 18 124 18t144 -18q53 57 53 143zM643 -27q-221 0 -376 154t-154 373q0 130 59 242
t162 186q-82 98 -82 244t114 258t278 112t277 -112q114 -112 113 -275q0 -131 -80 -229q102 -74 160 -186t60 -240q0 -219 -155 -373t-376 -154z" />
    <glyph glyph-name="nine" unicode="9" horiz-adv-x="1191" 
d="M901 1044q0 126 -90 218t-218 92t-215 -91t-87 -219t87 -217q87 -90 215 -90t218 90t90 217zM571 555q-199 0 -339 145q-140 144 -140 348t146 349t356 145q209 0 357 -143t149 -346q0 -145 -103 -338l-376 -715h-228l303 580q-59 -25 -125 -25z" />
    <glyph glyph-name="colon" unicode=":" horiz-adv-x="661" 
d="M332 -12q-53 0 -90 37t-37 90t37 89t90 36t89 -36t36 -89t-36 -90t-89 -37zM332 719q-53 0 -90 37t-37 90t37 90t90 37t89 -37t36 -90t-36 -90t-89 -37z" />
    <glyph glyph-name="semicolon" unicode=";" horiz-adv-x="663" 
d="M326 -12q-49 0 -85 36t-36 90t37 90t96 36t93 -48t34 -146t-65 -196t-169 -100v103q41 6 77 45t40 92q-6 -2 -22 -2zM332 719q-53 0 -90 37t-37 90t37 90t90 37t89 -37t36 -90t-36 -90t-89 -37z" />
    <glyph glyph-name="less" unicode="&#x3c;" horiz-adv-x="927" 
d="M702 12l-702 697l702 696l142 -135l-572 -561l574 -564z" />
    <glyph glyph-name="equal" unicode="=" horiz-adv-x="1288" 
d="M113 389v191h1063v-191h-1063zM113 838v190h1063v-190h-1063z" />
    <glyph glyph-name="greater" unicode="&#x3e;" horiz-adv-x="927" 
d="M225 12l-143 133l573 564l-573 561l143 135l703 -696z" />
    <glyph glyph-name="question" unicode="?" horiz-adv-x="1101" 
d="M465 -12q-53 0 -90 37t-37 90t37 89t90 36t90 -36t37 -89t-37 -90t-90 -37zM365 401v140q0 80 16 135t59 94t73 57q29 17 115 59t136 92q49 50 49 150t-70 159q-69 61 -181 61t-172 -73t-60 -192h-197q-2 199 119 329t322 130q202 0 324 -117t122 -309q0 -150 -72 -230
t-188 -140q-116 -58 -153 -99q-38 -41 -38 -119v-127h-204z" />
    <glyph glyph-name="at" unicode="@" horiz-adv-x="1976" 
d="M1206 391q0 111 -71 187q-72 76 -184 76q-113 0 -179 -74t-66 -188t66 -186t180 -73t184 73t70 185zM1004 -537q-182 1 -344 63t-288 177q-124 115 -197 291t-73 393t79 398t211 293q272 231 618 232t600 -200q120 -96 192 -251t72 -369t-106 -378t-281 -165
q-94 0 -157 49q-62 49 -81 133q-106 -158 -319 -158q-180 0 -291 121t-111 302t113 302t292 121t286 -127v113h182v-543q0 -135 98 -135q84 0 137 106t54 256q0 275 -180 459t-471 184q-290 0 -511 -177q-108 -87 -174 -235t-65 -337q0 -346 208 -546t521 -200
q240 0 428 127l90 -131q-256 -168 -532 -168z" />
    <glyph glyph-name="A" unicode="A" horiz-adv-x="1429" 
d="M715 1262l-275 -711h545zM1196 0l-135 354h-696l-136 -354h-225l596 1516h229l596 -1516h-229z" />
    <glyph glyph-name="B" unicode="B" horiz-adv-x="1226" 
d="M604 197q342 0 342 245q0 252 -346 252h-217v-497h221zM623 891q264 0 264 211q0 217 -285 217h-219v-428h240zM174 0v1516h420q242 0 372 -104t130 -294q0 -240 -217 -319q137 -33 207 -133t69 -242q0 -213 -151 -319q-152 -105 -394 -105h-436z" />
    <glyph glyph-name="C" unicode="C" horiz-adv-x="1464" 
d="M66 756q0 328 229 556t563 228t565 -237l-149 -132q-168 179 -413 179t-416 -178t-171 -418t172 -415t406 -175t412 172l137 -137q-231 -225 -552 -225t-552 226q-231 228 -231 556z" />
    <glyph glyph-name="D" unicode="D" horiz-adv-x="1470" 
d="M578 197q274 0 445 139t171 428t-193 425q-177 128 -448 128h-170v-1120h195zM174 0v1516h418q356 0 584 -206t227 -553q0 -347 -227 -552t-586 -205h-416z" />
    <glyph glyph-name="E" unicode="E" horiz-adv-x="1167" 
d="M174 0v1516h885v-199h-676v-428h561v-197h-561v-495h676v-197h-885z" />
    <glyph glyph-name="F" unicode="F" horiz-adv-x="1130" 
d="M174 0v1516h891v-199h-682v-428h565v-197h-565v-692h-209z" />
    <glyph glyph-name="G" unicode="G" horiz-adv-x="1685" 
d="M1556 713q0 -328 -191 -534t-516 -206q-325 -1 -554 225t-229 556t229 559t568 229t579 -246l-131 -145q-82 98 -203 148t-248 51q-248 0 -417 -174t-169 -423t167 -419t419 -170q207 0 343 123t149 360h-539v197h743v-131z" />
    <glyph glyph-name="H" unicode="H" horiz-adv-x="1585" 
d="M1202 0v700h-819v-700h-209v1516h209v-619h819v619h209v-1516h-209z" />
    <glyph glyph-name="I" unicode="I" horiz-adv-x="557" 
d="M174 0v1516h209v-1516h-209z" />
    <glyph glyph-name="J" unicode="J" horiz-adv-x="546" 
d="M-92 -446v192h14q162 0 208 100q24 52 31 110t7 153v1407h211v-1393q0 -135 -10 -215t-47 -150q-111 -205 -402 -204h-12z" />
    <glyph glyph-name="K" unicode="K" horiz-adv-x="1284" 
d="M383 0h-209v1516h209v-680l584 680h258l-668 -758l721 -758h-270l-625 659v-659z" />
    <glyph glyph-name="L" unicode="L" horiz-adv-x="1142" 
d="M174 0v1516h209v-1319h713v-197h-922z" />
    <glyph glyph-name="M" unicode="M" horiz-adv-x="1847" 
d="M1462 0v1249l-450 -661h-185l-444 661v-1249h-209v1516h285l461 -703l469 703h284v-1516h-211z" />
    <glyph glyph-name="N" unicode="N" horiz-adv-x="1689" 
d="M383 0h-209v1516h270l863 -1166v1166h209v-1516h-218l-915 1241v-1241z" />
    <glyph glyph-name="O" unicode="O" horiz-adv-x="1716" 
d="M859 164q245 0 413 173t168 419t-168 420t-416 174t-415 -175t-167 -421t170 -418t415 -172zM855 1542q335 0 565 -227t229 -556t-231 -557t-560 -228t-561 226t-231 555t227 558t562 229z" />
    <glyph glyph-name="P" unicode="P" horiz-adv-x="1241" 
d="M631 735q156 0 246 72t90 215t-85 219t-251 76h-248v-582h248zM174 0v1516h461q250 0 395 -127q146 -127 146 -361t-142 -362q-142 -129 -399 -129h-252v-537h-209z" />
    <glyph glyph-name="Q" unicode="Q" horiz-adv-x="1701" 
d="M1440 763q0 249 -167 418t-416 169t-416 -172t-167 -418t169 -408t416 -162t414 162t167 411zM838 -2q-316 0 -544 218t-228 545t227 554t563 227t564 -224t229 -556q0 -369 -299 -565h333v-197q-529 -2 -845 -2z" />
    <glyph glyph-name="R" unicode="R" horiz-adv-x="1318" 
d="M729 858q141 0 218 50t77 177q0 231 -295 232h-346v-459h346zM1233 1087q0 -360 -361 -415l396 -672h-240l-385 659h-260v-659h-209v1516h557q236 0 369 -106t133 -323z" />
    <glyph glyph-name="S" unicode="S" horiz-adv-x="1101" 
d="M532 164q127 0 205 74t78 165t-52 147t-129 86t-168 71t-168 84t-129 127t-52 200q0 188 126 306t345 118t393 -143l-117 -160q-127 111 -284 111q-121 0 -188 -58q-66 -58 -66 -144q0 -87 52 -143t129 -86t168 -70t168 -83t129 -129t52 -207q0 -205 -135 -331t-350 -126
q-150 0 -281 66t-217 190l131 146q170 -211 360 -211z" />
    <glyph glyph-name="T" unicode="T" horiz-adv-x="1257" 
d="M524 0v1317h-483v199h1176v-199h-482v-1317h-211z" />
    <glyph glyph-name="U" unicode="U" horiz-adv-x="1611" 
d="M1237 1516h209v-846q0 -336 -175 -516t-466 -180t-466 180t-175 516v846h211v-773q0 -580 430 -579q432 0 432 579v773z" />
    <glyph glyph-name="V" unicode="V" horiz-adv-x="1462" 
d="M623 0l-603 1516h232l479 -1256l481 1256h230l-604 -1516h-215z" />
    <glyph glyph-name="W" unicode="W" horiz-adv-x="2095" 
d="M1391 0l-344 1147l-347 -1147h-208l-472 1516h230l346 -1217l354 1217h193l352 -1217l350 1217h230l-473 -1516h-211z" />
    <glyph glyph-name="X" unicode="X" horiz-adv-x="1347" 
d="M1038 0l-366 547l-363 -547h-248l488 733l-518 783h248l393 -596l397 596h248l-520 -783l489 -733h-248z" />
    <glyph glyph-name="Y" unicode="Y" horiz-adv-x="1318" 
d="M553 0v682l-539 834h242l401 -627l408 627h238l-541 -832v-684h-209z" />
    <glyph glyph-name="Z" unicode="Z" horiz-adv-x="1347" 
d="M82 0v197l911 1120h-889v199h1153v-199l-909 -1120h912v-197h-1178z" />
    <glyph glyph-name="bracketleft" unicode="[" horiz-adv-x="657" 
d="M123 -414v1930h514v-187h-305v-1560h305v-183h-514z" />
    <glyph glyph-name="backslash" unicode="\" horiz-adv-x="1038" 
d="M838 0l-834 1516h197l833 -1516h-196z" />
    <glyph glyph-name="bracketright" unicode="]" horiz-adv-x="657" 
d="M20 -414v183h306v1560h-306v187h515v-1930h-515z" />
    <glyph glyph-name="asciicircum" unicode="^" horiz-adv-x="1150" 
d="M874 688l-301 647l-297 -647h-204l397 828h213l397 -828h-205z" />
    <glyph glyph-name="underscore" unicode="_" horiz-adv-x="1142" 
d="M35 -166v166h1071v-166h-1071z" />
    <glyph glyph-name="grave" unicode="`" horiz-adv-x="733" 
d="M102 1339l95 172l432 -245l-90 -156z" />
    <glyph glyph-name="a" unicode="a" 
d="M918 481q0 133 -92 229t-229 95q-136 0 -228 -94q-93 -95 -93 -231t92 -229t228 -93q138 0 230 95t92 228zM922 0v115q-121 -141 -332 -141q-212 0 -360 146q-148 148 -148 362t149 362q150 147 358 147t333 -143v125h196v-973h-196z" />
    <glyph glyph-name="b" unicode="b" 
d="M367 481q0 -135 89 -229t227 -94t230 93q93 93 93 229t-92 230t-228 95q-135 -1 -227 -95t-92 -229zM164 0v1516h196v-668q123 143 332 143t359 -147q149 -148 149 -362t-148 -361t-360 -147t-332 141v-115h-196z" />
    <glyph glyph-name="c" unicode="c" horiz-adv-x="1081" 
d="M592 -27q-211 1 -361 149t-149 359q0 211 148 361t362 149q135 1 250 -65t184 -174l-166 -95q-43 68 -114 108t-154 40q-131 0 -223 -96q-93 -97 -93 -229t94 -227t226 -95q178 0 270 153l164 -96q-68 -111 -184 -177t-254 -65z" />
    <glyph glyph-name="d" unicode="d" 
d="M918 481q0 133 -92 229t-229 95q-136 0 -228 -94q-93 -95 -93 -231t92 -229t228 -93q138 0 230 95t92 228zM922 0v115q-121 -141 -332 -141q-212 0 -360 146q-148 148 -148 362t149 362q150 147 358 147t333 -143v668h196v-1516h-196z" />
    <glyph glyph-name="e" unicode="e" horiz-adv-x="1153" 
d="M582 811q-112 0 -192 -67q-81 -67 -107 -173h594q-15 102 -99 171t-196 69zM82 478q0 212 142 363t356 151t355 -150q142 -150 142 -359q0 -27 -4 -67h-797q20 -115 106 -190t210 -74q178 0 272 133l140 -107q-68 -96 -178 -150t-234 -55q-214 1 -362 147t-148 358z" />
    <glyph glyph-name="f" unicode="f" horiz-adv-x="679" 
d="M178 0v786h-143v187h143v225q0 146 73 232t226 86q88 0 162 -23v-176q-47 14 -122 14t-107 -44t-33 -154v-160h241v-187h-241v-786h-199z" />
    <glyph glyph-name="g" unicode="g" 
d="M918 481q0 133 -92 229t-229 95q-136 0 -228 -94q-93 -95 -93 -231t92 -229t228 -93q138 0 230 95t92 228zM82 482q0 214 149 362q150 147 358 147t333 -143v125h196v-893q0 -386 -240 -527q-120 -71 -271 -71q-150 0 -266 62t-185 175l182 78q92 -131 248 -131t245 89
q90 89 91 290v70q-121 -141 -332 -141q-212 0 -360 146q-148 148 -148 362z" />
    <glyph glyph-name="h" unicode="h" horiz-adv-x="1187" 
d="M846 0v510q0 295 -238 295q-248 0 -248 -309v-496h-196v1516h196v-648q109 123 287 123q178 -1 288 -111t109 -329v-551h-198z" />
    <glyph glyph-name="i" unicode="i" horiz-adv-x="526" 
d="M164 0v973h198v-973h-198zM263 1155q-56 0 -95 38t-39 94t39 94t95 38t94 -37t38 -94t-38 -95t-94 -38z" />
    <glyph glyph-name="j" unicode="j" horiz-adv-x="526" 
d="M164 -518v1491h198v-1491h-198zM263 1155q-56 0 -95 38t-39 95t39 94t95 37t94 -37t38 -94t-38 -95t-94 -38z" />
    <glyph glyph-name="k" unicode="k" horiz-adv-x="1048" 
d="M360 0h-196v1516h196v-945l375 402h260l-428 -447l465 -526h-258l-414 465v-465z" />
    <glyph glyph-name="l" unicode="l" horiz-adv-x="552" 
d="M164 1516h196v-1207q0 -83 26 -117t95 -34q31 0 49 2v-172q-57 -14 -108 -15q-121 0 -190 71t-68 204v1268z" />
    <glyph glyph-name="m" unicode="m" horiz-adv-x="1767" 
d="M1427 0v510q0 150 -45 222t-155 73q-233 0 -234 -309v-496h-198v510q0 152 -45 224t-156 71q-233 0 -234 -309v-496h-196v973h196v-105q111 123 267 123q227 0 311 -180q119 180 324 180q170 1 266 -109t96 -331v-551h-197z" />
    <glyph glyph-name="n" unicode="n" horiz-adv-x="1187" 
d="M846 0v510q0 295 -238 295q-248 0 -248 -309v-496h-196v973h196v-105q109 123 287 123q178 -1 288 -111t109 -329v-551h-198z" />
    <glyph glyph-name="o" unicode="o" horiz-adv-x="1187" 
d="M911 483q0 133 -93 227t-226 95q-133 0 -224 -97q-92 -96 -92 -228t92 -227t226 -95q133 0 225 96t92 229zM1106 482q0 -210 -152 -360t-362 -149t-361 149q-150 148 -149 359q0 211 148 361t362 150t364 -150t150 -360z" />
    <glyph glyph-name="p" unicode="p" 
d="M367 481q0 -135 89 -229t227 -94t230 93q93 93 93 229t-92 230t-228 95q-135 -1 -227 -95t-92 -229zM164 -518v1491h196v-125q123 143 332 143t359 -147q149 -148 149 -362t-148 -361t-360 -147t-332 141v-633h-196z" />
    <glyph glyph-name="q" unicode="q" 
d="M918 481q0 133 -92 229t-229 95q-136 0 -228 -94q-93 -95 -93 -231t92 -229t228 -93q138 0 230 95t92 228zM922 -518v633q-121 -141 -332 -141q-212 0 -360 146q-148 148 -148 362t149 362q150 147 358 147t333 -143v125h196v-1491h-196z" />
    <glyph glyph-name="r" unicode="r" horiz-adv-x="774" 
d="M164 0v973h196v-117q68 82 150 109t229 26v-188q-223 0 -301 -77t-78 -222v-504h-196z" />
    <glyph glyph-name="s" unicode="s" horiz-adv-x="886" 
d="M446 152q78 0 120 30t42 80q0 51 -52 83t-126 50t-148 44t-127 88q-52 62 -53 159q0 135 92 220t242 85q195 0 330 -110l-104 -146q-102 76 -224 76q-70 0 -106 -30q-36 -29 -35 -75q0 -80 178 -131q74 -20 148 -49t126 -92t52 -160q1 -139 -97 -220t-284 -81t-352 127
l106 152q123 -100 272 -100z" />
    <glyph glyph-name="t" unicode="t" horiz-adv-x="716" 
d="M471 -27q-164 0 -223 88t-60 238v487h-153v187h153v330h199v-330h264v-187h-264v-464q0 -88 27 -126q28 -38 102 -38t109 14v-176q-55 -23 -154 -23z" />
    <glyph glyph-name="u" unicode="u" horiz-adv-x="1177" 
d="M834 973h196v-557q0 -217 -117 -330t-325 -113t-326 113q-117 113 -117 330v557h199v-543q0 -272 245 -272t245 272v543z" />
    <glyph glyph-name="v" unicode="v" horiz-adv-x="1052" 
d="M422 0l-402 973h213l291 -727l295 727h213l-399 -973h-211z" />
    <glyph glyph-name="w" unicode="w" horiz-adv-x="1675" 
d="M1083 0l-245 700l-244 -700h-209l-365 973h218l251 -717l256 717h183l256 -717l252 717h219l-367 -973h-205z" />
    <glyph glyph-name="x" unicode="x" horiz-adv-x="954" 
d="M715 0l-238 352l-237 -352h-220l347 512l-316 461h221l205 -301l205 301h221l-315 -461l346 -512h-219z" />
    <glyph glyph-name="y" unicode="y" horiz-adv-x="993" 
d="M240 -518l178 500l-398 991h216l278 -731l262 731h197l-539 -1491h-194z" />
    <glyph glyph-name="z" unicode="z" horiz-adv-x="974" 
d="M102 0v180l519 606h-519v187h770v-180l-516 -609h516v-184h-770z" />
    <glyph glyph-name="braceleft" unicode="{" horiz-adv-x="720" 
d="M502 -418q-104 0 -161 79q-56 79 -56 189v359q0 236 -244 244v188q244 8 244 246v358q0 111 56 190t161 78h198v-151h-108q-98 0 -98 -176v-361q0 -96 -58 -174t-182 -102q123 -15 181 -107t59 -200v-330q0 -176 98 -176h108v-154h-198z" />
    <glyph glyph-name="bar" unicode="|" horiz-adv-x="491" 
d="M143 -287v1803h205v-1803h-205z" />
    <glyph glyph-name="braceright" unicode="}" horiz-adv-x="720" 
d="M20 -418v154h109q98 0 98 176v330q1 110 59 200t181 107q-125 25 -182 103t-58 173v361q0 176 -98 176h-109v151h199q104 0 161 -78q56 -79 56 -190v-358q0 -238 244 -246v-188q-244 -8 -244 -244v-359q0 -112 -56 -190t-161 -78h-199z" />
    <glyph glyph-name="asciitilde" unicode="~" horiz-adv-x="1224" 
d="M1122 733q0 -113 -78 -185t-187 -73q-109 0 -247 82t-227 82q-129 0 -129 -123q0 -25 2 -39h-143q-10 47 -11 82q0 117 81 187t195 69q114 0 193 -41q78 -41 145 -82t132 -41q123 0 123 125q0 25 -2 37h143q10 -45 10 -80z" />
    <glyph glyph-name="uni00A0" unicode="&#xa0;" horiz-adv-x="552" 
 />
    <glyph glyph-name="exclamdown" unicode="&#xa1;" horiz-adv-x="573" 
d="M182 -393v526l51 574h103l51 -574v-526h-205zM414 1008q0 -53 -37 -90t-90 -37t-90 37t-37 90t37 90t90 37t90 -37t37 -90z" />
    <glyph glyph-name="cent" unicode="&#xa2;" horiz-adv-x="1214" 
d="M328 756q0 -100 56 -184t146 -117v604q-90 -35 -146 -119t-56 -184zM530 0v262q-172 39 -284 177q-112 137 -113 317q0 180 113 320t284 179v261h183v-252q233 -31 364 -236l-166 -94q-72 111 -198 139v-633q133 29 205 148l163 -96q-61 -96 -157 -160t-211 -78v-254
h-183z" />
    <glyph glyph-name="sterling" unicode="&#xa3;" horiz-adv-x="1167" 
d="M55 0v180q270 106 271 363q0 41 -11 92h-206v190h141q-68 160 -68 279q0 186 118 312t334 126t334 -116t138 -314h-209q-49 242 -262 242q-125 0 -183 -70t-58 -165t73 -294h436v-190h-381q10 -45 10 -84q0 -231 -215 -361h773v-190h-1035z" />
    <glyph glyph-name="currency" unicode="&#xa4;" horiz-adv-x="1253" 
d="M920 709q0 121 -87 209t-210 88t-211 -88t-88 -209t89 -208t210 -87t209 87t88 208zM622 219q-162 0 -290 94l-166 -163l-109 108l166 166q-96 129 -96 288t96 283l-168 166l111 111l168 -168q129 94 289 94t284 -92l168 166l109 -111l-164 -164q98 -131 98 -287
t-98 -288l166 -164l-109 -111l-166 164q-127 -92 -289 -92z" />
    <glyph glyph-name="yen" unicode="&#xa5;" horiz-adv-x="1329" 
d="M768 369v-369h-211v369h-465v170h465v96l-22 78h-443v170h336l-408 633h242l402 -627l405 627h240l-412 -633h328v-170h-434l-23 -78v-96h457v-170h-457z" />
    <glyph glyph-name="brokenbar" unicode="&#xa6;" horiz-adv-x="491" 
d="M143 -287v717h205v-717h-205zM143 799v717h205v-717h-205z" />
    <glyph glyph-name="section" unicode="&#xa7;" horiz-adv-x="1153" 
d="M854 507q0 103 -166 194q-67 38 -164 81q-98 44 -127 58q-41 -29 -71 -73t-29 -92q0 -47 54 -101q53 -54 115 -86t160 -76t132 -62q43 27 69 72q27 45 27 85zM92 662q0 164 182 292q-72 90 -71 201q0 154 113 244q114 90 278 90t274 -97t119 -268h-203q-6 74 -61 123
t-129 49t-121 -43t-47 -109t66 -122q66 -55 158 -99q92 -43 186 -91t160 -124t65 -171q0 -168 -168 -289q104 -92 104 -251q1 -159 -121 -258t-301 -99t-301 117q-121 118 -127 298h203q4 -98 66 -160q62 -63 158 -63q94 0 157 46t63 116t-52 124t-130 89t-169 80t-169 89
t-130 119t-52 167z" />
    <glyph glyph-name="dieresis" unicode="&#xa8;" horiz-adv-x="829" 
d="M602 1108q-53 0 -90 37t-37 90t37 89t90 36t89 -36t36 -89t-36 -90t-89 -37zM229 1108q-53 0 -90 37t-37 90t37 89t90 36t89 -36t36 -89t-36 -90t-89 -37z" />
    <glyph glyph-name="copyright" unicode="&#xa9;" horiz-adv-x="1769" 
d="M467 754q0 184 130 319t316 135q117 0 219 -59t162 -158l-145 -84q-37 61 -99 99t-137 36q-117 0 -195 -85t-79 -201q0 -116 80 -200q80 -83 196 -83q154 0 238 137l143 -84q-59 -100 -160 -158t-221 -59q-184 0 -316 131q-132 130 -132 314zM884 115q265 0 450 188
q186 187 186 453t-186 455t-450 189q-266 0 -450 -188t-184 -454t184 -455q185 -188 450 -188zM1667 758q0 -324 -229 -553t-553 -229t-553 228t-230 554q0 326 230 554t554 228q325 0 553 -229t228 -553z" />
    <glyph glyph-name="ordfeminine" unicode="&#xaa;" horiz-adv-x="923" 
d="M451 1374q-95 0 -145 -59t-50 -153t52 -152t146 -58q93 0 153 56q61 56 61 154q0 96 -62 154t-155 58zM666 834v81q-72 -100 -222 -100t-246 100q-96 99 -96 247t96 250t246 101q150 0 222 -102v88h155v-665h-155z" />
    <glyph glyph-name="guillemotleft" unicode="&#xab;" horiz-adv-x="1058" 
d="M756 106l-260 412l260 408h217l-254 -408l258 -412h-221zM342 106l-260 412l260 408h217l-254 -408l258 -412h-221z" />
    <glyph glyph-name="logicalnot" unicode="&#xac;" horiz-adv-x="1323" 
d="M1010 164v450h-908v191h1098v-641h-190z" />
    <glyph glyph-name="uni00AD" unicode="&#xad;" horiz-adv-x="1228" 
d="M133 459v188h588v-188h-588z" />
    <glyph glyph-name="registered" unicode="&#xae;" horiz-adv-x="1769" 
d="M889 809q100 0 154 27q55 28 55 106t-51 104t-158 25h-162v-262h162zM727 676v-361h-149v891h272q240 0 321 -63t80 -189q0 -215 -221 -266l221 -375h-178l-213 363h-133zM884 115q265 0 450 188q186 187 186 453t-186 455t-450 189q-266 0 -450 -188t-184 -454t184 -455
q185 -188 450 -188zM1667 758q0 -324 -229 -553t-553 -229t-553 228t-230 554q0 326 230 554t554 228q325 0 553 -229t228 -553z" />
    <glyph glyph-name="macron" unicode="&#xaf;" horiz-adv-x="917" 
d="M102 1143v176h713v-176h-713z" />
    <glyph glyph-name="degree" unicode="&#xb0;" horiz-adv-x="778" 
d="M567 1167q0 76 -51 127q-51 52 -127 52t-128 -52t-52 -127q0 -76 52 -128t128 -52t127 52t51 128zM696 1167q0 -127 -90 -217t-217 -90t-217 90t-90 217t90 217t217 90t217 -90t90 -217z" />
    <glyph glyph-name="plusminus" unicode="&#xb1;" horiz-adv-x="1310" 
d="M113 0v190h1085v-190h-1085zM750 737v-418h-191v418h-446v191h446v418h191v-418h448v-191h-448z" />
    <glyph glyph-name="uni00B2" unicode="&#xb2;" horiz-adv-x="792" 
d="M86 606v131l324 303q127 119 127 220q0 57 -40 93t-110 36q-69 -1 -105 -51t-38 -126h-158q0 146 86 232t223 86t221 -77t84 -196q0 -160 -155 -299l-234 -208h385v-144h-610z" />
    <glyph glyph-name="uni00B3" unicode="&#xb3;" horiz-adv-x="845" 
d="M379 1169h31q63 0 107 31t44 94t-36 91t-90 28t-86 -39t-32 -98h-151v16q0 113 82 184q82 70 198 70t196 -66t79 -177q0 -141 -117 -199q139 -59 139 -219q0 -129 -89 -210t-223 -81t-230 85t-99 230h150q2 -82 54 -128t123 -46t112 39t41 119t-50 115t-153 34v127z" />
    <glyph glyph-name="acute" unicode="&#xb4;" horiz-adv-x="733" 
d="M193 1110l-91 154l435 247l94 -168z" />
    <glyph glyph-name="uni00B5" unicode="&#xb5;" horiz-adv-x="1193" 
d="M164 -518v1491h196v-522q0 -150 52 -222q52 -71 193 -71q142 0 194 71q51 72 51 222v522h199v-578q0 -422 -431 -422q-168 0 -258 101v-592h-196z" />
    <glyph glyph-name="paragraph" unicode="&#xb6;" horiz-adv-x="1449" 
d="M557 1360q-166 0 -252 -92t-86 -224t86 -228q86 -95 252 -107v651zM969 -395v1751h-238v-1751h-174v952q-231 23 -367 151q-135 128 -135 324t136 339q136 144 382 145h811v-160h-243v-1751h-172z" />
    <glyph glyph-name="periodcentered" unicode="&#xb7;" horiz-adv-x="661" 
d="M332 395q-53 0 -90 37t-37 90t37 89t90 36t89 -36t36 -89t-36 -90t-89 -37z" />
    <glyph glyph-name="cedilla" unicode="&#xb8;" horiz-adv-x="620" 
d="M319 -90q91 0 145 -51t54 -143t-58 -147q-58 -54 -144 -54t-145 48q-60 48 -69 156h97q6 -61 39 -89q32 -28 78 -28t76 32t30 83q0 102 -119 103h-147l63 180h105l-35 -90h30z" />
    <glyph glyph-name="uni00B9" unicode="&#xb9;" horiz-adv-x="507" 
d="M246 606v766h-164v144h324v-910h-160z" />
    <glyph glyph-name="ordmasculine" unicode="&#xba;" horiz-adv-x="917" 
d="M459 1370q-89 0 -145 -59t-56 -145t58 -144q58 -57 144 -57q87 0 143 58t56 144q0 87 -56 145t-144 58zM815 1168q0 -146 -103 -248q-104 -102 -252 -102t-252 100t-106 245q0 145 104 249t252 106q148 0 252 -102t105 -248z" />
    <glyph glyph-name="guillemotright" unicode="&#xbb;" horiz-adv-x="1058" 
d="M496 106l258 412l-254 408h217l260 -408l-260 -412h-221zM82 106l258 412l-254 408h217l260 -408l-260 -412h-221z" />
    <glyph glyph-name="onequarter" unicode="&#xbc;" horiz-adv-x="1587" 
d="M1202 281v393l-254 -393h254zM1202 0v141h-424v129l408 619h170v-608h108v-140h-108v-141h-154zM246 0l831 1516h168l-831 -1516h-168zM246 606v766h-164v144h324v-910h-160z" />
    <glyph glyph-name="onehalf" unicode="&#xbd;" horiz-adv-x="1708" 
d="M971 0v131l323 303q127 115 127 219q0 57 -40 93q-39 36 -109 36t-106 -50t-38 -126h-157q0 146 86 232t223 86t221 -77t84 -198q0 -160 -155 -297l-234 -209h385v-143h-610zM246 0l831 1516h168l-831 -1516h-168zM246 606v766h-164v144h324v-910h-160z" />
    <glyph glyph-name="threequarters" unicode="&#xbe;" horiz-adv-x="1824" 
d="M1442 281v393l-254 -393h254zM1442 0v141h-426v129l407 619h170v-608h109v-140h-109v-141h-151zM485 0l832 1516h168l-832 -1516h-168zM369 1169h30q63 0 108 31q44 31 44 94t-36 91t-90 28t-86 -39t-32 -98h-151v16q0 113 82 184q82 70 198 70t195 -66q80 -66 80 -177
q0 -141 -117 -199q139 -59 139 -219q0 -129 -89 -210t-223 -81t-231 85q-96 85 -98 230h150q2 -82 54 -128t123 -46t111 39t41 119q0 80 -50 115t-152 34v127z" />
    <glyph glyph-name="questiondown" unicode="&#xbf;" horiz-adv-x="1030" 
d="M989 35q0 -199 -120 -329q-121 -130 -321 -130t-323 118t-123 312q0 157 87 244q46 45 86 71q40 27 121 69t119 83t38 117v129h205v-141q0 -106 -46 -195q-30 -58 -202 -141q-66 -33 -102 -57q-36 -25 -67 -73q-32 -48 -32 -112q0 -106 70 -166q69 -60 181 -61t172 71
t61 191h196zM784 1006q0 -53 -36 -91q-36 -37 -90 -37t-91 38q-37 36 -37 90t37 90q37 37 90 37t90 -37t37 -90z" />
    <glyph glyph-name="Agrave" unicode="&#xc0;" horiz-adv-x="1429" 
d="M715 1262l-275 -711h545zM1196 0l-135 354h-696l-136 -354h-225l596 1516h229l596 -1516h-229zM866 1651l-438 221l94 168l434 -236z" />
    <glyph glyph-name="Aacute" unicode="&#xc1;" horiz-adv-x="1429" 
d="M715 1262l-275 -711h545zM1196 0l-135 354h-696l-136 -354h-225l596 1516h229l596 -1516h-229zM549 1651l-90 153l434 236l94 -168z" />
    <glyph glyph-name="Acircumflex" unicode="&#xc2;" horiz-adv-x="1429" 
d="M715 1262l-275 -711h545zM1196 0l-135 354h-696l-136 -354h-225l596 1516h229l596 -1516h-229zM952 1651l-235 229l-242 -229l-121 121l279 268h172l270 -268z" />
    <glyph glyph-name="Atilde" unicode="&#xc3;" horiz-adv-x="1429" 
d="M715 1262l-275 -711h545zM1196 0l-135 354h-696l-136 -354h-225l596 1516h229l596 -1516h-229zM866 1665q-59 0 -154 42t-150 42t-120 -61l-94 137q106 98 219 98q61 0 155 -42t134 -42q72 0 139 68l84 -133q-98 -109 -213 -109z" />
    <glyph glyph-name="Adieresis" unicode="&#xc4;" horiz-adv-x="1429" 
d="M715 1262l-275 -711h545zM1196 0l-135 354h-696l-136 -354h-225l596 1516h229l596 -1516h-229zM1063 1819q0 -57 -38 -95t-94 -38t-95 38t-39 94q0 58 39 95t95 37t94 -37t38 -94zM631 1819q0 -57 -38 -95t-94 -38t-96 37q-39 39 -39 95t39 94t95 38t95 -37
q38 -37 38 -94z" />
    <glyph glyph-name="Aring" unicode="&#xc5;" horiz-adv-x="1429" 
d="M715 1262l-275 -711h545zM1196 0l-135 354h-696l-136 -354h-225l596 1516h229l596 -1516h-229zM805 1821q0 39 -27 65q-28 26 -66 27q-38 0 -65 -28q-27 -27 -27 -65t28 -65q26 -27 64 -27t66 28q28 26 27 65zM932 1821q0 -89 -65 -153t-155 -64t-153 64q-63 65 -63 153
q0 87 63 153t153 66t156 -64q64 -64 64 -155z" />
    <glyph glyph-name="AE" unicode="&#xc6;" horiz-adv-x="2043" 
d="M1051 565v740l-465 -740h465zM1051 0v369h-588l-230 -369h-239l956 1516h985v-199h-675v-428h561v-197h-561v-495h675v-197h-884z" />
    <glyph glyph-name="Ccedilla" unicode="&#xc7;" horiz-adv-x="1464" 
d="M858 1540q334 0 565 -237l-149 -132q-168 179 -413 179t-416 -178t-171 -418t173 -415t407 -175t410 172l137 -137q-231 -225 -543 -226l-27 -65h33q90 0 144 -51t55 -143q0 -92 -58 -146q-57 -55 -143 -55t-146 48t-71 156h96q6 -61 40 -89t80 -28t75 32t29 83
q0 102 -117 103h-150l58 162q-293 34 -492 254q-198 220 -198 535t229 543t563 228z" />
    <glyph glyph-name="Egrave" unicode="&#xc8;" horiz-adv-x="1167" 
d="M174 0v1516h885v-199h-676v-428h561v-197h-561v-495h676v-197h-885zM766 1651l-438 221l94 168l434 -236z" />
    <glyph glyph-name="Eacute" unicode="&#xc9;" horiz-adv-x="1167" 
d="M174 0v1516h885v-199h-676v-428h561v-197h-561v-495h676v-197h-885zM479 1651l-90 153l434 236l95 -168z" />
    <glyph glyph-name="Ecircumflex" unicode="&#xca;" horiz-adv-x="1167" 
d="M174 0v1516h885v-199h-676v-428h561v-197h-561v-495h676v-197h-885zM870 1651l-235 229l-242 -229l-121 121l279 268h172l270 -268z" />
    <glyph glyph-name="Edieresis" unicode="&#xcb;" horiz-adv-x="1167" 
d="M174 0v1516h885v-199h-676v-428h561v-197h-561v-495h676v-197h-885zM975 1819q0 -57 -38 -95t-94 -38t-95 38t-39 94q0 58 39 95t95 37t94 -37t38 -94zM543 1819q0 -57 -38 -95t-94 -38t-96 37q-39 39 -39 95t39 94t95 38t95 -37q38 -37 38 -94z" />
    <glyph glyph-name="Igrave" unicode="&#xcc;" horiz-adv-x="557" 
d="M174 0v1516h209v-1516h-209zM393 1653l-438 221l94 168l434 -236z" />
    <glyph glyph-name="Iacute" unicode="&#xcd;" horiz-adv-x="557" 
d="M174 0v1516h209v-1516h-209zM115 1653l-90 153l434 236l94 -168z" />
    <glyph glyph-name="Icircumflex" unicode="&#xce;" horiz-adv-x="557" 
d="M174 0v1516h209v-1516h-209zM516 1651l-235 229l-242 -229l-121 121l279 268h172l270 -268z" />
    <glyph glyph-name="Idieresis" unicode="&#xcf;" horiz-adv-x="557" 
d="M174 0v1516h209v-1516h-209zM627 1819q0 -57 -38 -95t-94 -38t-96 37q-39 37 -39 95t39 95t95 37t95 -37q38 -37 38 -94zM62 1686q-56 0 -95 38t-39 94t39 94t95 38t94 -37t39 -94q0 -57 -38 -96q-39 -37 -95 -37z" />
    <glyph glyph-name="Eth" unicode="&#xd0;" horiz-adv-x="1470" 
d="M578 197q274 0 445 139t171 428t-193 425q-177 128 -448 128h-170v-445h379v-198h-379v-477h195zM174 0v674h-158v198h158v644h418q356 0 584 -206t227 -553q0 -347 -227 -552t-586 -205h-416z" />
    <glyph glyph-name="Ntilde" unicode="&#xd1;" horiz-adv-x="1689" 
d="M383 0h-209v1516h270l863 -1166v1166h209v-1516h-218l-915 1241v-1241zM1018 1665q-58 0 -154 42t-150 42t-120 -61l-94 137q106 98 219 98q61 0 154 -42t135 -42q72 0 139 68l84 -133q-98 -109 -213 -109z" />
    <glyph glyph-name="Ograve" unicode="&#xd2;" horiz-adv-x="1716" 
d="M859 164q245 0 413 173t168 419t-168 420t-416 174t-415 -175t-167 -421t170 -418t415 -172zM855 1542q335 0 565 -227t229 -556t-231 -557t-560 -228t-561 226t-231 555t227 558t562 229zM946 1653l-438 221l94 168l434 -236z" />
    <glyph glyph-name="Oacute" unicode="&#xd3;" horiz-adv-x="1716" 
d="M859 164q245 0 413 173t168 419t-168 420t-416 174t-415 -175t-167 -421t170 -418t415 -172zM855 1542q335 0 565 -227t229 -556t-231 -557t-560 -228t-561 226t-231 555t227 558t562 229zM713 1653l-90 153l434 236l94 -168z" />
    <glyph glyph-name="Ocircumflex" unicode="&#xd4;" horiz-adv-x="1716" 
d="M859 164q245 0 413 173t168 419t-168 420t-416 174t-415 -175t-167 -421t170 -418t415 -172zM855 1542q335 0 565 -227t229 -556t-231 -557t-560 -228t-561 226t-231 555t227 558t562 229zM1094 1651l-236 229l-242 -229l-120 121l278 268h172l271 -268z" />
    <glyph glyph-name="Otilde" unicode="&#xd5;" horiz-adv-x="1716" 
d="M859 164q245 0 413 173t168 419t-168 420t-416 174t-415 -175t-167 -421t170 -418t415 -172zM855 1542q335 0 565 -227t229 -556t-231 -557t-560 -228t-561 226t-231 555t227 558t562 229zM1010 1665q-58 0 -154 42t-150 42t-120 -61l-94 137q106 98 219 98q61 0 154 -42
t134 -42q72 0 140 68l84 -133q-98 -109 -213 -109z" />
    <glyph glyph-name="Odieresis" unicode="&#xd6;" horiz-adv-x="1716" 
d="M859 164q245 0 413 173t168 419t-168 420t-416 174t-415 -175t-167 -421t170 -418t415 -172zM855 1542q335 0 565 -227t229 -556t-231 -557t-560 -228t-561 226t-231 555t227 558t562 229zM1206 1819q0 -57 -38 -95t-94 -38t-95 38t-39 94q0 58 39 95t95 37t94 -37
t38 -94zM774 1819q0 -57 -38 -95t-94 -38t-95 38t-39 94t39 94t95 38t94 -37t38 -94z" />
    <glyph glyph-name="multiply" unicode="&#xd7;" horiz-adv-x="1183" 
d="M592 571l-344 -344l-135 133l346 347l-344 342l133 135l344 -344l344 344l133 -135l-342 -342l344 -347l-135 -133z" />
    <glyph glyph-name="Oslash" unicode="&#xd8;" horiz-adv-x="1716" 
d="M858 164q246 0 414 173t168 419q0 141 -62 264q-61 123 -168 207l-563 -1024q105 -39 211 -39zM274 754q0 -142 60 -264t168 -203l559 1024q-92 39 -205 39q-248 0 -415 -175t-167 -421zM66 756q0 328 227 557t563 229q154 0 299 -59l72 129l155 -72l-75 -137
q160 -105 251 -275t91 -370q-1 -328 -231 -556t-560 -229q-158 0 -305 58l-70 -125l-151 69l74 136q-158 106 -249 275t-91 370z" />
    <glyph glyph-name="Ugrave" unicode="&#xd9;" horiz-adv-x="1611" 
d="M1237 1516h209v-846q0 -336 -175 -516t-466 -180t-466 180t-175 516v846h211v-773q0 -580 430 -579q432 0 432 579v773zM928 1651l-439 221l95 168l434 -236z" />
    <glyph glyph-name="Uacute" unicode="&#xda;" horiz-adv-x="1611" 
d="M1237 1516h209v-846q0 -336 -175 -516t-466 -180t-466 180t-175 516v846h211v-773q0 -580 430 -579q432 0 432 579v773zM692 1653l-90 153l434 236l94 -168z" />
    <glyph glyph-name="Ucircumflex" unicode="&#xdb;" horiz-adv-x="1611" 
d="M1237 1516h209v-846q0 -336 -175 -516t-466 -180t-466 180t-175 516v846h211v-773q0 -580 430 -579q432 0 432 579v773zM1042 1651l-235 229l-242 -229l-121 121l279 268h172l270 -268z" />
    <glyph glyph-name="Udieresis" unicode="&#xdc;" horiz-adv-x="1611" 
d="M1237 1516h209v-846q0 -336 -175 -516t-466 -180t-466 180t-175 516v846h211v-773q0 -580 430 -579q432 0 432 579v773zM1153 1819q0 -57 -38 -95t-94 -38t-95 38t-39 94q0 58 39 95t95 37t94 -37t38 -94zM721 1819q0 -57 -38 -95t-94 -38t-95 38t-39 94t39 94t95 38
t94 -37t38 -94z" />
    <glyph glyph-name="Yacute" unicode="&#xdd;" horiz-adv-x="1318" 
d="M553 0v682l-539 834h242l401 -627l408 627h238l-541 -832v-684h-209zM551 1651l-90 153l434 236l94 -168z" />
    <glyph glyph-name="Thorn" unicode="&#xde;" horiz-adv-x="1230" 
d="M631 465q156 0 246 71t90 215t-86 220t-250 76h-248v-582h248zM383 266v-266h-209v1516h209v-271h184q72 0 140 -6q469 -45 469 -477q0 -238 -142 -367t-399 -129h-252z" />
    <glyph glyph-name="germandbls" unicode="&#xdf;" horiz-adv-x="1208" 
d="M496 0v182h143q143 0 212 73t69 189t-76 189q-76 74 -228 74h-120v178h135q84 0 134 59q50 60 50 158t-57 164t-179 66t-170 -92q-48 -91 -49 -255v-985h-196v993q0 522 424 523q196 0 310 -108t114 -282q0 -116 -47 -198t-117 -121q127 -39 198 -140t70 -239
q0 -196 -138 -312t-357 -116h-125z" />
    <glyph glyph-name="agrave" unicode="&#xe0;" 
d="M918 481q0 133 -92 229t-229 95q-136 0 -228 -94q-93 -95 -93 -231t92 -229t228 -93q138 0 230 95t92 228zM922 0v115q-121 -141 -332 -141q-212 0 -360 146q-148 148 -148 362t149 362q150 147 358 147t333 -143v125h196v-973h-196zM326 1325l94 172l430 -231l-78 -158z
" />
    <glyph glyph-name="aacute" unicode="&#xe1;" 
d="M918 481q0 133 -92 229t-229 95q-136 0 -228 -94q-93 -95 -93 -231t92 -229t228 -93q138 0 230 95t92 228zM922 0v115q-121 -141 -332 -141q-212 0 -360 146q-148 148 -148 362t149 362q150 147 358 147t333 -143v125h196v-973h-196zM477 1108l-80 154l445 235l94 -168z
" />
    <glyph glyph-name="acircumflex" unicode="&#xe2;" 
d="M918 481q0 133 -92 229t-229 95q-136 0 -228 -94q-93 -95 -93 -231t92 -229t228 -93q138 0 230 95t92 228zM922 0v115q-121 -141 -332 -141q-212 0 -360 146q-148 148 -148 362t149 362q150 147 358 147t333 -143v125h196v-973h-196zM842 1108l-236 229l-241 -229
l-121 121l278 268h172l271 -268z" />
    <glyph glyph-name="atilde" unicode="&#xe3;" 
d="M918 481q0 133 -92 229t-229 95q-136 0 -228 -94q-93 -95 -93 -231t92 -229t228 -93q138 0 230 95t92 228zM922 0v115q-121 -141 -332 -141q-212 0 -360 146q-148 148 -148 362t149 362q150 147 358 147t333 -143v125h196v-973h-196zM476 1229q-55 0 -120 -62l-94 138
q106 98 219 98q61 0 155 -42t134 -42q72 0 139 67l84 -133q-98 -109 -213 -108q-59 0 -154 42t-150 42z" />
    <glyph glyph-name="adieresis" unicode="&#xe4;" 
d="M918 481q0 133 -92 229t-229 95q-136 0 -228 -94q-93 -95 -93 -231t92 -229t228 -93q138 0 230 95t92 228zM922 0v115q-121 -141 -332 -141q-212 0 -360 146q-148 148 -148 362t149 362q150 147 358 147t333 -143v125h196v-973h-196zM835 1155q-56 0 -96 38
q-39 38 -39 95t39 94t95 37t95 -37q38 -37 38 -94t-38 -95t-94 -38zM535 1288q-1 -57 -39 -95t-94 -38t-95 38t-39 94t39 94t95 38t94 -37t39 -94z" />
    <glyph glyph-name="aring" unicode="&#xe5;" 
d="M918 481q0 133 -92 229t-229 95q-136 0 -228 -94q-93 -95 -93 -231t92 -229t228 -93q138 0 230 95t92 228zM922 0v115q-121 -141 -332 -141q-212 0 -360 146q-148 148 -148 362t149 362q150 147 358 147t333 -143v125h196v-973h-196zM696 1298q0 39 -26 66q-27 27 -66 27
q-40 0 -66 -28t-26 -66q0 -39 27 -65t65 -26t64 26q28 26 28 66zM823 1298q-1 -90 -65 -153t-153 -63t-153 62q-64 64 -65 153t63 155t154 66t154 -65t65 -155z" />
    <glyph glyph-name="ae" unicode="&#xe6;" horiz-adv-x="2007" 
d="M918 481q0 133 -92 229t-229 95q-136 0 -228 -94q-93 -93 -93 -231t92 -230t228 -92q138 0 230 95t92 228zM1436 811q-112 0 -192 -67q-81 -67 -107 -173h594q-15 102 -99 171t-196 69zM1112 0h-190v115q-121 -141 -331 -141t-360 146q-150 148 -149 363q0 215 149 362
q150 146 358 146t333 -143v125h190v-103q137 121 337 121q200 1 341 -149t141 -359q0 -27 -4 -67h-797q20 -115 106 -190t210 -74q178 0 272 133l140 -107q-68 -96 -177 -150t-233 -55q-197 0 -336 123v-96z" />
    <glyph glyph-name="ccedilla" unicode="&#xe7;" horiz-adv-x="1081" 
d="M82 492q0 200 148 350t362 149q135 1 250 -65t184 -174l-166 -95q-43 68 -114 108t-154 40q-131 0 -223 -96q-93 -97 -93 -229t92 -227t226 -95q180 0 272 153l164 -96q-68 -106 -178 -171t-238 -71l-24 -63h31q90 0 144 -51t54 -143t-57 -147q-58 -54 -144 -54t-146 48
t-69 156h97q6 -61 39 -89t79 -28t75 32q30 32 30 83q0 102 -119 103h-147l55 160q-184 29 -307 171q-123 141 -123 341z" />
    <glyph glyph-name="egrave" unicode="&#xe8;" horiz-adv-x="1153" 
d="M582 811q-112 0 -192 -67q-81 -67 -107 -173h594q-15 102 -99 171t-196 69zM82 478q0 212 142 363t356 151t355 -150q142 -150 142 -359q0 -27 -4 -67h-797q20 -115 106 -190t210 -74q178 0 272 133l140 -107q-68 -96 -178 -150t-234 -55q-214 1 -362 147t-148 358z
M725 1110l-438 221l94 168l434 -235z" />
    <glyph glyph-name="eacute" unicode="&#xe9;" horiz-adv-x="1153" 
d="M582 811q-112 0 -192 -67q-81 -67 -107 -173h594q-15 102 -99 171t-196 69zM82 478q0 212 142 363t356 151t355 -150q142 -150 142 -359q0 -27 -4 -67h-797q20 -115 106 -190t210 -74q178 0 272 133l140 -107q-68 -96 -178 -150t-234 -55q-214 1 -362 147t-148 358z
M412 1108l-80 154l444 235l94 -168z" />
    <glyph glyph-name="ecircumflex" unicode="&#xea;" horiz-adv-x="1153" 
d="M582 811q-112 0 -192 -67q-81 -67 -107 -173h594q-15 102 -99 171t-196 69zM82 478q0 212 142 363t356 151t355 -150q142 -150 142 -359q0 -27 -4 -67h-797q20 -115 106 -190t210 -74q178 0 272 133l140 -107q-68 -96 -178 -150t-234 -55q-214 1 -362 147t-148 358z
M817 1108l-235 229l-242 -229l-121 121l279 268h172l270 -268z" />
    <glyph glyph-name="edieresis" unicode="&#xeb;" horiz-adv-x="1153" 
d="M582 811q-112 0 -192 -67q-81 -67 -107 -173h594q-15 102 -99 171t-196 69zM82 478q0 212 142 363t356 151t355 -150q142 -150 142 -359q0 -27 -4 -67h-797q20 -115 106 -190t210 -74q178 0 272 133l140 -107q-68 -96 -178 -150t-234 -55q-214 1 -362 147t-148 358z
M802 1155q-56 0 -95 38t-39 95t39 94t95 37t94 -37t38 -94t-38 -95t-94 -38zM370 1155q-56 0 -96 38q-38 38 -38 94t38 94q40 38 96 38t94 -37t38 -94t-38 -95t-94 -38z" />
    <glyph glyph-name="igrave" unicode="&#xec;" horiz-adv-x="526" 
d="M164 0v973h198v-973h-198zM420 1110l-438 221l94 168l434 -235z" />
    <glyph glyph-name="iacute" unicode="&#xed;" horiz-adv-x="526" 
d="M164 0v973h198v-973h-198zM98 1110l-90 154l434 235l95 -168z" />
    <glyph glyph-name="icircumflex" unicode="&#xee;" horiz-adv-x="526" 
d="M164 0v973h198v-973h-198zM502 1108l-236 229l-241 -229l-121 121l278 268h172l271 -268z" />
    <glyph glyph-name="idieresis" unicode="&#xef;" horiz-adv-x="526" 
d="M164 0v973h198v-973h-198zM482 1419q56 0 94 -37t38 -94t-38 -95t-94 -38t-95 38t-39 95t39 94t95 37zM50 1155q-56 0 -95 38t-39 94t39 94t95 38t94 -37t38 -94t-38 -95t-94 -38z" />
    <glyph glyph-name="eth" unicode="&#xf0;" horiz-adv-x="1187" 
d="M911 484q0 132 -93 226t-226 95q-133 0 -224 -95q-92 -94 -92 -228t92 -229t227 -95q134 0 225 97t91 229zM1106 541q0 -158 -50 -275t-131 -177q-157 -116 -333 -116q-211 0 -361 150q-149 149 -149 357t147 360t355 151q141 0 258 -92q-94 195 -287 330l-141 -131
l-97 92l119 110q-119 63 -270 103l119 115q150 -31 276 -97l146 133l94 -96l-121 -108q202 -140 314 -356t112 -453z" />
    <glyph glyph-name="ntilde" unicode="&#xf1;" horiz-adv-x="1187" 
d="M846 0v510q0 295 -238 295q-248 0 -248 -309v-496h-196v973h196v-105q109 123 287 123q178 -1 288 -111t109 -329v-551h-198zM460 1229q-54 0 -120 -62l-94 138q106 98 219 98q61 0 155 -42t134 -42q72 0 139 67l84 -133q-98 -109 -213 -108q-58 0 -154 42t-150 42z" />
    <glyph glyph-name="ograve" unicode="&#xf2;" horiz-adv-x="1187" 
d="M911 483q0 133 -93 227t-226 95q-133 0 -224 -97q-92 -96 -92 -228t92 -227t226 -95q133 0 225 96t92 229zM1106 482q0 -210 -152 -360t-362 -149t-361 149q-150 148 -149 359q0 211 148 361t362 150t364 -150t150 -360zM745 1110l-438 221l94 168l435 -235z" />
    <glyph glyph-name="oacute" unicode="&#xf3;" horiz-adv-x="1187" 
d="M911 483q0 133 -93 227t-226 95q-133 0 -224 -97q-92 -96 -92 -228t92 -227t226 -95q133 0 225 96t92 229zM1106 482q0 -210 -152 -360t-362 -149t-361 149q-150 148 -149 359q0 211 148 361t362 150t364 -150t150 -360zM449 1110l-91 154l435 235l94 -168z" />
    <glyph glyph-name="ocircumflex" unicode="&#xf4;" horiz-adv-x="1187" 
d="M911 483q0 133 -93 227t-226 95q-133 0 -224 -97q-92 -96 -92 -228t92 -227t226 -95q133 0 225 96t92 229zM1106 482q0 -210 -152 -360t-362 -149t-361 149q-150 148 -149 359q0 211 148 361t362 150t364 -150t150 -360zM829 1108l-235 229l-242 -229l-121 121l279 268
h172l270 -268z" />
    <glyph glyph-name="otilde" unicode="&#xf5;" horiz-adv-x="1187" 
d="M911 483q0 133 -93 227t-226 95q-133 0 -224 -97q-92 -96 -92 -228t92 -227t226 -95q133 0 225 96t92 229zM1106 482q0 -210 -152 -360t-362 -149t-361 149q-150 148 -149 359q0 211 148 361t362 150t364 -150t150 -360zM442 1229q-54 0 -120 -62l-95 138q106 98 219 98
q60 0 154 -42t135 -42q72 0 139 67l84 -133q-98 -109 -213 -108q-59 0 -154 42t-149 42z" />
    <glyph glyph-name="odieresis" unicode="&#xf6;" horiz-adv-x="1187" 
d="M911 483q0 133 -93 227t-226 95q-133 0 -224 -97q-92 -96 -92 -228t92 -227t226 -95q133 0 225 96t92 229zM1106 482q0 -210 -152 -360t-362 -149t-361 149q-150 148 -149 359q0 211 148 361t362 150t364 -150t150 -360zM808 1155q-56 0 -95 38t-39 95t39 94t95 37
t94 -37t38 -94t-38 -95t-94 -38zM376 1155q-56 0 -95 38t-39 94t39 94t95 38t94 -37t38 -94t-38 -95t-94 -38z" />
    <glyph glyph-name="divide" unicode="&#xf7;" horiz-adv-x="1290" 
d="M645 203q-53 0 -90 37t-37 90t37 90t90 37t89 -37t36 -90t-36 -90t-89 -37zM102 612v191h1086v-191h-1086zM645 961q-53 1 -90 37t-37 89t37 89t90 36t89 -36t36 -88q0 -54 -36 -90t-89 -37z" />
    <glyph glyph-name="oslash" unicode="&#xf8;" horiz-adv-x="1187" 
d="M911 494q0 150 -131 247l-250 -575q18 -4 54 -4q137 0 232 91t95 241zM598 803q-134 -1 -228 -93t-94 -242t130 -247l247 576q-18 6 -55 6zM82 481q0 211 148 361t362 149q74 0 135 -20l70 164l129 -54l-72 -163q116 -70 184 -186t68 -251q0 -209 -152 -359t-362 -149
q-70 0 -137 19l-68 -160l-127 51l70 162q-112 67 -180 183t-68 253z" />
    <glyph glyph-name="ugrave" unicode="&#xf9;" horiz-adv-x="1177" 
d="M834 973h196v-557q0 -217 -117 -330t-325 -113t-326 113q-117 113 -117 330v557h199v-543q0 -272 245 -272t245 272v543zM268 1327l94 172l431 -231l-78 -158z" />
    <glyph glyph-name="uacute" unicode="&#xfa;" horiz-adv-x="1177" 
d="M834 973h196v-557q0 -217 -117 -330t-325 -113t-326 113q-117 113 -117 330v557h199v-543q0 -272 245 -272t245 272v543zM469 1110l-80 154l445 235l94 -168z" />
    <glyph glyph-name="ucircumflex" unicode="&#xfb;" horiz-adv-x="1177" 
d="M834 973h196v-557q0 -217 -117 -330t-325 -113t-326 113q-117 113 -117 330v557h199v-543q0 -272 245 -272t245 272v543zM825 1108l-235 229l-242 -229l-121 121l279 268h172l270 -268z" />
    <glyph glyph-name="udieresis" unicode="&#xfc;" horiz-adv-x="1177" 
d="M834 973h196v-557q0 -217 -117 -330t-325 -113t-326 113q-117 113 -117 330v557h199v-543q0 -272 245 -272t245 272v543zM804 1155q-56 0 -95 38t-39 95t39 94t95 37t94 -37t38 -94t-38 -95t-94 -38zM372 1155q-56 0 -96 38q-38 38 -38 94t38 94q40 38 96 38t94 -37
t38 -94t-38 -95t-94 -38z" />
    <glyph glyph-name="yacute" unicode="&#xfd;" horiz-adv-x="993" 
d="M240 -518l178 500l-398 991h216l278 -731l262 731h197l-539 -1491h-194zM391 1110l-80 154l445 235l94 -168z" />
    <glyph glyph-name="thorn" unicode="&#xfe;" 
d="M685 805q-136 1 -227 -93t-91 -230t90 -230t228 -94t229 93q92 93 92 229t-92 230t-229 95zM164 -518v2034h196v-668q123 143 332 143t359 -146q149 -145 149 -361t-150 -363t-359 -147q-210 0 -331 141v-633h-196z" />
    <glyph glyph-name="ydieresis" unicode="&#xff;" horiz-adv-x="993" 
d="M240 -518l178 500l-398 991h216l278 -731l262 731h197l-539 -1491h-194zM728 1155q-56 0 -95 38t-39 95t39 94t95 37t94 -37t38 -94t-38 -95t-94 -38zM296 1155q-56 0 -95 38t-39 94t39 94t95 38t94 -37t38 -94t-38 -95t-94 -38z" />
    <glyph glyph-name="dotlessi" unicode="&#x131;" horiz-adv-x="526" 
d="M164 0v973h198v-973h-198z" />
    <glyph glyph-name="Ldot" unicode="&#x13f;" horiz-adv-x="1142" 
d="M846 668q-53 0 -90 37t-37 90t37 89t90 36t89 -36t36 -89t-36 -90t-89 -37zM174 0v1516h209v-1319h713v-197h-922z" />
    <glyph glyph-name="ldot" unicode="&#x140;" horiz-adv-x="712" 
d="M625 598q-53 0 -90 37t-37 90t37 89t90 36t89 -36t36 -89t-36 -90t-89 -37zM164 1516h196v-1207q0 -83 26 -117t95 -34q31 0 49 2v-172q-57 -14 -108 -15q-121 0 -190 71t-68 204v1268z" />
    <glyph glyph-name="Lslash" unicode="&#x141;" horiz-adv-x="1142" 
d="M383 197h713v-197h-922v518l-162 -117v203l162 117v795h209v-646l326 238v-203l-326 -237v-471z" />
    <glyph glyph-name="lslash" unicode="&#x142;" horiz-adv-x="552" 
d="M360 309q0 -83 26 -117t95 -34q31 0 49 2v-172q-57 -14 -106 -15q-123 0 -192 71t-68 204v293l-135 -99v197l135 98v779h196v-635l152 108v-196l-152 -109v-375z" />
    <glyph glyph-name="OE" unicode="&#x152;" horiz-adv-x="2484" 
d="M1491 756q0 246 -169 420t-416 174q-248 0 -414 -175t-166 -421t170 -418t414 -172t413 173q168 173 168 419zM1491 0v227q-109 -121 -259 -187t-323 -67q-330 1 -561 227t-231 555t227 558t570 229t577 -256v230h885v-199h-676v-428h561v-197h-561v-495h676v-197h-885z
" />
    <glyph glyph-name="oe" unicode="&#x153;" horiz-adv-x="1986" 
d="M1423 805q-113 -1 -189 -63t-112 -169h586q-23 102 -97 167q-75 65 -188 65zM911 482q0 132 -93 228t-225 95q-132 0 -224 -96q-93 -97 -93 -229t92 -227t226 -95q133 0 225 96t92 228zM1413 991q217 1 356 -151t140 -367q0 -39 -2 -59h-791q25 -115 110 -186t201 -70
q168 0 269 141l155 -100q-154 -225 -424 -226q-131 -1 -239 57t-180 156q-70 -98 -180 -155t-236 -58q-211 1 -361 149q-149 148 -149 358t148 361t360 150q126 0 236 -58t180 -157q147 215 407 215z" />
    <glyph glyph-name="Scaron" unicode="&#x160;" horiz-adv-x="1101" 
d="M532 164q127 0 205 74t78 165t-52 147t-129 86t-168 71t-168 84t-129 127t-52 200q0 188 126 306t345 118t393 -143l-117 -160q-127 111 -284 111q-121 0 -188 -58q-66 -58 -66 -144q0 -87 52 -143t129 -86t168 -70t168 -83t129 -129t52 -207q0 -205 -135 -331t-350 -126
q-150 0 -281 66t-217 190l131 146q170 -211 360 -211zM829 2040l123 -121l-270 -268h-172l-279 268l121 121l242 -230z" />
    <glyph glyph-name="scaron" unicode="&#x161;" horiz-adv-x="886" 
d="M446 152q78 0 120 30t42 80q0 51 -52 83t-126 50t-148 44t-127 88q-52 62 -53 159q0 135 92 220t242 85q195 0 330 -110l-104 -146q-102 76 -224 76q-70 0 -106 -30q-36 -29 -35 -75q0 -80 178 -131q74 -20 148 -49t126 -92t52 -160q1 -139 -97 -220t-284 -81t-352 127
l106 152q123 -100 272 -100zM680 1497l123 -121l-271 -268h-172l-278 268l121 121l241 -229z" />
    <glyph glyph-name="Ydieresis" unicode="&#x178;" horiz-adv-x="1318" 
d="M553 0v682l-539 834h242l401 -627l408 627h238l-541 -832v-684h-209zM1008 1819q0 -57 -38 -95t-94 -38t-96 37q-39 37 -39 95t39 95q40 37 96 37t94 -37t38 -94zM443 1686q-56 0 -95 38t-39 94t39 94t95 38q57 0 95 -37t38 -94t-38 -96q-39 -37 -95 -37z" />
    <glyph glyph-name="Zcaron" unicode="&#x17d;" horiz-adv-x="1347" 
d="M82 0v197l911 1120h-889v199h1153v-199l-909 -1120h912v-197h-1178zM907 2040l123 -121l-270 -268h-172l-279 268l121 121l242 -230z" />
    <glyph glyph-name="zcaron" unicode="&#x17e;" horiz-adv-x="974" 
d="M102 0v180l519 606h-519v187h770v-180l-516 -609h516v-184h-770zM719 1497l123 -121l-271 -268h-172l-278 268l121 121l241 -229z" />
    <glyph glyph-name="florin" unicode="&#x192;" horiz-adv-x="630" 
d="M41 -203q94 0 123 35t29 105v849h-148v187h148v141q0 57 2 86q18 266 278 279q39 2 100 -6v-177q-129 0 -160 -57q-22 -39 -22 -145v-121h189v-187h-189v-870q0 -246 -221 -289q-63 -12 -129 -6v176z" />
    <glyph glyph-name="circumflex" unicode="&#x2c6;" horiz-adv-x="901" 
d="M688 1108l-235 229l-242 -229l-109 109l283 280h135l279 -280z" />
    <glyph glyph-name="caron" unicode="&#x2c7;" horiz-adv-x="901" 
d="M516 1108h-135l-279 281l111 108l236 -229l241 229l109 -108z" />
    <glyph glyph-name="breve" unicode="&#x2d8;" horiz-adv-x="860" 
d="M694 1358q0 -110 -70 -180t-203 -70q-134 0 -204 71t-70 179h127q0 -53 37 -84t109 -31q147 0 147 115h127z" />
    <glyph glyph-name="dotaccent" unicode="&#x2d9;" horiz-adv-x="456" 
d="M229 1108q-53 0 -90 37t-37 90t37 89t90 36t89 -36t36 -89t-36 -90t-89 -37z" />
    <glyph glyph-name="ring" unicode="&#x2da;" horiz-adv-x="641" 
d="M412 1233q0 39 -27 65t-66 27q-39 0 -65 -28q-26 -27 -27 -65q0 -38 27 -65q26 -27 64 -27t66 28q28 26 28 65zM539 1233q0 -89 -65 -153t-155 -64t-153 63q-64 63 -64 153t64 154q64 66 153 66q90 0 155 -64t65 -155z" />
    <glyph glyph-name="ogonek" unicode="&#x2db;" horiz-adv-x="507" 
d="M475 -373q-61 -31 -140 -31t-141 53q-62 51 -62 157t79 194h121q-60 -84 -60 -146t33 -96t84 -34t86 18v-115z" />
    <glyph glyph-name="tilde" unicode="&#x2dc;" horiz-adv-x="935" 
d="M621 1108q-59 0 -155 42t-150 42t-119 -62l-95 138q106 98 220 98q61 0 154 -42t134 -42q72 0 140 68l84 -133q-98 -109 -213 -109z" />
    <glyph glyph-name="hungarumlaut" unicode="&#x2dd;" horiz-adv-x="1134" 
d="M659 1094l-114 133l364 315l123 -141zM217 1094l-115 133l365 315l123 -141z" />
    <glyph glyph-name="endash" unicode="&#x2013;" horiz-adv-x="1185" 
d="M35 459v188h1114v-188h-1114z" />
    <glyph glyph-name="emdash" unicode="&#x2014;" horiz-adv-x="2097" 
d="M35 459v188h2025v-188h-2025z" />
    <glyph glyph-name="quoteleft" unicode="&#x2018;" horiz-adv-x="458" 
d="M236 1278q49 0 85 -36q35 -36 35 -89t-37 -90t-96 -37t-93 48t-34 146t65 195q65 98 167 103v-105q-39 -6 -75 -45t-40 -92q6 2 23 2z" />
    <glyph glyph-name="quoteright" unicode="&#x2019;" horiz-adv-x="458" 
d="M223 1274q-49 0 -85 36t-36 90t37 90t96 36t93 -48t34 -146t-64 -195q-64 -98 -169 -103v105q41 6 77 45t40 92q-6 -2 -23 -2z" />
    <glyph glyph-name="quotesinglbase" unicode="&#x201a;" horiz-adv-x="458" 
d="M223 -12q-49 0 -85 36t-36 90t37 90t96 36t93 -48t34 -126q0 -117 -64 -216q-65 -98 -169 -100v103q41 6 77 45t40 92q-6 -2 -23 -2z" />
    <glyph glyph-name="quotedblleft" unicode="&#x201c;" horiz-adv-x="817" 
d="M594 1278q49 0 85 -36t36 -89t-36 -90t-95 -37t-95 48q-35 48 -35 146t65 195q65 98 169 103v-105q-41 -6 -77 -45t-40 -92q6 2 23 2zM236 1278q49 0 85 -36q35 -36 35 -89t-36 -90t-94 -37q-60 0 -95 48t-35 146t65 195q65 98 169 103v-105q-41 -6 -77 -45t-40 -92
q6 2 23 2z" />
    <glyph glyph-name="quotedblright" unicode="&#x201d;" horiz-adv-x="817" 
d="M582 1276q-49 0 -85 36t-36 89t36 90t95 37t94 -48t35 -146t-65 -195q-65 -98 -169 -103v105q41 6 77 45t40 92q-6 -2 -22 -2zM223 1276q-49 0 -85 36t-36 89t36 90t95 37t95 -48t34 -146q0 -98 -64 -195q-64 -98 -169 -103v105q41 6 77 45t40 92q-6 -2 -23 -2z" />
    <glyph glyph-name="quotedblbase" unicode="&#x201e;" horiz-adv-x="817" 
d="M582 -12q-49 0 -85 36t-36 89t36 90t95 37t94 -48t35 -146t-65 -196t-169 -102v105q41 6 77 45t40 92q-6 -2 -22 -2zM223 -12q-49 0 -85 36t-36 89t36 90t95 37t95 -48t34 -126q0 -117 -64 -216q-65 -98 -169 -102v105q41 6 77 45t40 92q-6 -2 -23 -2z" />
    <glyph glyph-name="dagger" unicode="&#x2020;" horiz-adv-x="1126" 
d="M461 -518v1405h-365v182h365v447h205v-447h364v-182h-364v-1405h-205z" />
    <glyph glyph-name="daggerdbl" unicode="&#x2021;" horiz-adv-x="1146" 
d="M469 -518v543h-363v180h363v741h-363v182h363v388h207v-388h362v-182h-362v-741h362v-180h-362v-543h-207z" />
    <glyph glyph-name="bullet" unicode="&#x2022;" horiz-adv-x="983" 
d="M492 428q-141 0 -240 101q-98 101 -98 243t99 242t241 100t238 -101q97 -101 97 -241t-98 -242t-239 -102z" />
    <glyph glyph-name="ellipsis" unicode="&#x2026;" horiz-adv-x="1986" 
d="M1657 -12q-53 0 -90 37t-37 90t37 89t90 36t89 -36t36 -89t-36 -90t-89 -37zM993 -12q-53 0 -90 37t-37 90t37 89t90 36t90 -36t37 -89t-37 -90t-90 -37zM332 -12q-53 0 -90 37t-37 90t37 89t90 36t89 -36t36 -89t-36 -90t-89 -37z" />
    <glyph glyph-name="perthousand" unicode="&#x2030;" horiz-adv-x="2705" 
d="M2216 137q88 -1 149 63t62 154t-61 152t-150 61q-88 0 -150 -61q-62 -62 -61 -152q-1 -90 61 -154t150 -63zM1376 137q88 -1 150 63t61 154q0 90 -61 152q-62 62 -150 61q-88 0 -149 -61q-61 -62 -61 -152t60 -154q62 -64 150 -63zM2603 354q0 -158 -115 -270
q-114 -112 -272 -113q-158 0 -272 113q-114 112 -115 270q0 158 115 271q114 113 272 113t272 -114q114 -112 115 -270zM1763 354q-1 -158 -115 -270t-272 -113q-158 0 -272 113q-114 112 -115 270q0 158 115 271q114 113 272 113t273 -113q114 -113 114 -271zM489 952
q87 0 149 62t62 153t-61 153t-149 62t-150 -62q-61 -62 -61 -152t61 -154q61 -62 149 -62zM430 0l832 1516h178l-832 -1516h-178zM877 1167q0 -159 -115 -271t-273 -112q-159 0 -273 113t-114 271t115 270t273 112t272 -112q115 -112 115 -271z" />
    <glyph glyph-name="guilsinglleft" unicode="&#x2039;" horiz-adv-x="645" 
d="M342 106l-260 412l260 408h217l-254 -408l258 -412h-221z" />
    <glyph glyph-name="guilsinglright" unicode="&#x203a;" horiz-adv-x="645" 
d="M82 106l258 412l-254 408h217l260 -408l-260 -412h-221z" />
    <glyph glyph-name="fraction" unicode="&#x2044;" horiz-adv-x="370" 
d="M-313 0l831 1516h168l-831 -1516h-168z" />
    <glyph glyph-name="Euro" unicode="&#x20ac;" horiz-adv-x="1210" 
d="M650 -27q-212 1 -336 149t-138 396h-176l59 160h117v143h-156l60 160h96q4 237 130 399t360 162q186 0 307 -105t135 -286h-205q-15 94 -77 146t-160 53q-139 0 -208 -102t-77 -267h549l-60 -160h-489v-143h461l-60 -160h-399q23 -354 281 -354q104 0 169 53t72 145h199
q-12 -172 -127 -280t-327 -109z" />
    <glyph glyph-name="trademark" unicode="&#x2122;" horiz-adv-x="1597" 
d="M1303 795v499l-166 -215h-66l-166 213v-497h-149v721h153l195 -259l209 259h141v-721h-151zM283 795v581h-181v140h508v-140h-178v-581h-149z" />
    <glyph glyph-name="minus" unicode="&#x2212;" horiz-adv-x="1290" 
d="M102 612v191h1086v-191h-1086z" />
    <glyph glyph-name="uniF8FF" unicode="&#xf8ff;" horiz-adv-x="1830" 
d="M489 1468h762v-245h-503v-387q121 -43 395 -199q85 -49 197 -88t210 -39l97 8q-10 -21 -70 -43q-59 -22 -129 -22q-256 0 -700 231v-684h-259v791q-49 20 -113 20t-108 -30q-45 -30 -45 -78q0 -99 76 -125q-53 2 -84 36t-31 105q0 70 69 121t189 51q29 0 47 -4v581z" />
    <glyph glyph-name="W.alt" horiz-adv-x="2037" 
d="M1221 0l-203 528l-203 -528h-213l-582 1516h230l459 -1256l200 547l-270 709h229l152 -412l151 412h228l-273 -707l201 -549l463 1256h227l-583 -1516h-213z" />
    <glyph glyph-name="g.ss01" horiz-adv-x="1099" 
d="M548 80q-103 0 -173 -58t-70 -152t68 -154t174 -60t174 61q67 61 67 153t-68 150q-68 60 -172 60zM547 266q106 0 181 78t75 191t-75 191t-180 79q-105 0 -179 -80t-74 -192q0 -111 73 -189t179 -78zM547 -528q-180 0 -308 112t-128 275q0 100 54 184t150 133
q-100 58 -156 156t-57 213q0 184 130 315t315 131q68 0 127 -18h334v-156h-109q98 -121 98 -254q0 -261 -219 -389q207 -111 207 -315q0 -159 -129 -273t-309 -114z" />
    <glyph glyph-name="g.ss02" horiz-adv-x="1032" 
d="M725 -235q0 57 -52 95q-51 38 -147 38t-143 -38t-47 -96t47 -93q47 -36 143 -36t148 37q51 37 51 93zM293 579q1 -103 63 -171t161 -68t161 70q61 70 61 170t-63 168q-64 68 -162 68t-160 -67q-61 -67 -61 -170zM518 59q178 0 286 -85t108 -209q0 -125 -106 -209
q-104 -84 -278 -84t-275 84t-101 199t69 192q-82 55 -82 164t86 163q-123 128 -123 308t118 295t296 114q61 0 121 -18h309v-156h-98q84 -102 84 -261q0 -158 -119 -276t-291 -118q-39 0 -85 8q-47 8 -71 8t-43 -20t-19 -48t20 -48t51 -19q69 16 143 16z" />
    <glyph glyph-name="zero.osf" horiz-adv-x="1187" 
d="M911 483q0 133 -93 227t-226 95q-133 0 -224 -97q-92 -96 -92 -228t92 -227t226 -95q133 0 225 96t92 229zM1106 482q0 -210 -152 -360t-362 -149t-361 149q-150 148 -149 359q0 211 148 361t362 150t364 -150t150 -360z" />
    <glyph glyph-name="one.osf" horiz-adv-x="624" 
d="M252 0v791h-221v182h420v-973h-199z" />
    <glyph glyph-name="two.osf" horiz-adv-x="847" 
d="M82 0v174q274 150 389 276t115 222q0 59 -38 101t-110 42t-122 -44t-54 -132h-182q4 160 99 256t256 96t249 -85t88 -224q0 -315 -461 -516l471 6v-172h-700z" />
    <glyph glyph-name="three.osf" horiz-adv-x="1042" 
d="M455 266v183h63q82 0 131 57t49 133t-50 126t-135 50t-134 -61t-49 -146h-195q-1 162 103 273t272 111t276 -101q108 -100 107 -250q0 -195 -164 -281q97 -43 149 -128t52 -193q0 -180 -125 -292t-305 -112t-296 116t-122 286h194q6 -99 68 -161t164 -62t164 60
q61 60 61 156t-60 167q-60 70 -159 69h-59z" />
    <glyph glyph-name="four.osf" horiz-adv-x="1069" 
d="M633 684h-2l-348 -502h350v502zM637 -344v344h-565v190l565 787h192v-795h158v-182h-158v-344h-192z" />
    <glyph glyph-name="five.osf" horiz-adv-x="1058" 
d="M559 580q197 0 313 -136t115 -328q0 -192 -131 -336q-132 -144 -328 -144t-331 127q-135 128 -146 317h180q10 -117 84 -190q74 -72 197 -72t202 82t79 208t-76 206t-209 81q-133 0 -213 -96l-141 86l100 588h600v-182h-424l-51 -254q78 43 180 43z" />
    <glyph glyph-name="six.osf" horiz-adv-x="1083" 
d="M543 158q113 0 189 80t75 190q0 112 -78 190q-77 78 -189 78t-188 -80t-76 -190t77 -190q77 -78 190 -78zM559 877q178 1 310 -135t132 -319t-136 -317t-324 -133q-188 0 -324 133q-135 133 -135 320q0 115 80 286t350 644h213l-291 -506q61 27 125 27z" />
    <glyph glyph-name="seven.osf" horiz-adv-x="856" 
d="M10 791v182h805v-180l-485 -1137h-205l487 1135h-602z" />
    <glyph glyph-name="eight.osf" horiz-adv-x="1116" 
d="M842 446q0 117 -84 203t-202 86t-200 -87t-82 -204q0 -118 83 -202t201 -84t201 86t83 202zM719 1025q0 75 -46 123t-115 48t-115 -48t-46 -121t54 -122q57 14 105 14t108 -14q55 45 55 120zM1034 444q0 -194 -140 -332t-337 -138t-336 138t-139 332q0 115 52 216
t142 167q-70 88 -70 218q0 129 103 231q101 102 247 102t248 -101t104 -231q0 -130 -72 -219q92 -66 145 -167t53 -216z" />
    <glyph glyph-name="nine.osf" horiz-adv-x="1083" 
d="M807 539q1 111 -77 189t-190 79q-112 0 -189 -80q-77 -81 -77 -191t78 -189t190 -79t188 80t77 191zM524 86q-180 0 -311 135t-131 319t136 317q136 134 324 134t323 -134q136 -134 136 -320q-1 -115 -79 -282t-351 -646h-213l291 506q-59 -29 -125 -29z" />
    <glyph glyph-name="ampersand.ss01" horiz-adv-x="1331" 
d="M860 702h-242q-145 0 -221 -70q-75 -70 -75 -188q0 -120 76 -200t197 -80t193 74t72 235v229zM1069 702v-213q0 -243 -127 -379t-348 -136t-351 131q-130 132 -130 331q0 274 243 369q-92 47 -147 134t-55 202q0 178 126 290q126 111 297 111t289 -106l-108 -154
q-74 74 -174 74t-162 -62t-62 -160q0 -99 69 -167t183 -68h248v244h209v-244h172v-197h-172z" />
    <glyph glyph-name="ampersand.ss02" horiz-adv-x="1275" 
d="M1174 500q0 -219 -155 -373t-376 -154t-376 154t-154 373q0 130 58 242t161 184q-78 100 -78 246t114 258q114 113 275 112q100 0 186 -47t140 -127l-160 -106q-57 92 -151 92t-148 -58q-53 -58 -53 -140q0 -83 51 -139t135 -56q129 0 182 124l164 -104
q-49 -93 -141 -151t-190 -58t-166 31q-80 -43 -128 -124t-49 -179q1 -138 95 -238t233 -100t235 99q95 99 95 239q0 88 -41 164l168 104q74 -121 74 -268z" />
    </font>
</defs>
</svg>
