<?xml version="1.0" standalone="no"?>
<!DOCTYPE svg PUBLIC "-//W3C//DTD SVG 20010904//EN"
 "http://www.w3.org/TR/2001/REC-SVG-20010904/DTD/svg10.dtd">
<svg version="1.0" xmlns="http://www.w3.org/2000/svg"
 width="392.000000pt" height="392.000000pt" viewBox="0 0 392.000000 392.000000"
 preserveAspectRatio="xMidYMid meet">
<metadata>
Created by potrace 1.11, written by Peter Selinger 2001-2013
</metadata>
<g transform="translate(0.000000,392.000000) scale(0.100000,-0.100000)"
fill="#000000" stroke="none">
<path d="M2253 3631 l-118 -116 -47 11 c-26 7 -88 18 -138 25 l-91 13 -930
-930 -930 -929 7 -65 c3 -36 8 -68 10 -71 2 -4 6 -24 9 -45 8 -51 45 -187 54
-196 4 -4 105 91 226 212 l219 220 12 -58 c7 -32 22 -91 34 -131 l22 -74 1079
1079 c593 593 1079 1082 1079 1086 0 13 -225 68 -337 81 l-42 5 -118 -117z"/>
<path d="M1800 3703 c-120 -32 -252 -80 -340 -123 -64 -32 -98 -44 -155 -56
-142 -28 -376 -127 -520 -219 -199 -127 -392 -318 -521 -517 -103 -160 -196
-381 -229 -548 -9 -47 -19 -94 -22 -105 -3 -11 142 126 321 305 312 311 326
323 303 270 -25 -57 -75 -207 -83 -249 -3 -13 -11 -51 -19 -85 -8 -33 -12 -62
-10 -65 3 -2 325 316 717 708 791 792 744 733 558 684z"/>
<path d="M2880 3385 c-146 -146 -155 -154 -175 -140 -11 8 -56 37 -99 65 l-79
49 -1162 -1162 -1162 -1161 29 -49 c39 -66 100 -154 135 -196 l29 -33 186 187
c181 181 187 186 199 163 7 -13 37 -56 67 -96 l55 -73 79 78 c472 469 2324
2325 2326 2331 4 14 -245 192 -269 192 -3 0 -74 -70 -159 -155z"/>
<path d="M3349 2982 c-230 -231 -200 -212 -238 -153 -18 27 -45 65 -61 83 -17
18 -30 36 -30 41 0 4 -4 7 -9 7 -5 0 -550 -541 -1211 -1202 l-1202 -1203 33
-28 c48 -41 224 -157 239 -157 7 0 80 68 162 150 83 83 152 150 154 150 1 0
45 -27 96 -60 51 -33 97 -60 101 -60 5 0 531 522 1169 1160 l1160 1159 -37 61
c-35 57 -152 220 -157 220 -2 -1 -78 -76 -169 -168z"/>
<path d="M3620 2378 c-113 -115 -212 -212 -220 -217 -12 -7 -16 -5 -17 8 -1 9
-11 55 -23 101 -12 47 -24 95 -27 108 -3 12 -8 22 -12 22 -13 0 -2163 -2158
-2155 -2163 13 -7 152 -44 194 -51 19 -3 44 -8 56 -10 12 -2 45 -7 74 -11 l53
-7 116 116 116 116 95 -20 c52 -10 115 -21 140 -24 l45 -6 928 928 c925 925
927 927 926 967 0 34 -21 151 -43 244 -10 42 -28 96 -35 101 -3 3 -98 -88
-211 -202z"/>
<path d="M3580 1465 c-173 -173 -315 -313 -317 -311 -2 2 4 20 13 42 23 54 72
196 78 225 3 13 12 57 21 98 9 40 14 75 12 77 -1 2 -324 -318 -717 -711 -393
-393 -712 -715 -709 -715 3 0 55 11 115 24 147 33 264 75 394 141 36 18 85 36
110 40 83 14 284 85 392 139 112 57 241 139 318 203 61 50 217 208 261 263
113 141 229 358 287 535 23 72 66 255 60 260 -2 2 -145 -137 -318 -310z"/>
</g>
</svg>
