<svg id="Layer_1" data-name="Layer 1" xmlns="http://www.w3.org/2000/svg" xmlns:xlink="http://www.w3.org/1999/xlink" viewBox="0 0 1366 240"><defs><style>.cls-1{fill:none;}.cls-2{clip-path:url(#clip-path);}.cls-3{clip-path:url(#clip-path-2);}.cls-4{fill:#1a1a1a;}</style><clipPath id="clip-path"><rect class="cls-1" width="1366" height="240"/></clipPath><clipPath id="clip-path-2"><rect class="cls-1" y="-1.7" width="1366" height="488.66"/></clipPath></defs><title>footer-pattern</title><g class="cls-2"><g class="cls-3"><path class="cls-4" d="M-163,34.46,679.68-808.23A1004.94,1004.94,0,0,0,346.47-694.75C153.23-658.73-31.52-566-181-416.53-338.63-258.91-433.17-62.1-464.64,142.53L-77.16-245A1006.07,1006.07,0,0,0-163,34.46Z"/><path class="cls-4" d="M-122.6,509.53,1154.75-767.83A1009.81,1009.81,0,0,0,927.19-815.7L790.05-678.56a1011.41,1011.41,0,0,0-164.5-29.07L-472.11,390A1009.9,1009.9,0,0,0-424.24,617.6l263.11-263.11A1008.16,1008.16,0,0,0-122.6,509.53Z"/><path class="cls-4" d="M63.12,839.28,1484.5-582.11a1004.83,1004.83,0,0,0-163-112.44L1137.28-510.33a1002.76,1002.76,0,0,0-117.41-76.16L-351,784.36a1004.94,1004.94,0,0,0,112.44,163L-18.81,727.64A1007,1007,0,0,0,63.12,839.28Z"/><path class="cls-4" d="M346.12,1071.74,1717-299.1a1004.81,1004.81,0,0,0-112.44-163L1384.81-242.39A1006.79,1006.79,0,0,0,1302.88-354L-118.5,1067.37a1004.93,1004.93,0,0,0,163,112.44L228.72,995.58A1002.82,1002.82,0,0,0,346.12,1071.74Z"/><path class="cls-4" d="M740.45,1192.89,1838.11,95.22a1009.82,1009.82,0,0,0-47.88-227.56L1527.12,130.77a1008,1008,0,0,0-38.52-155L211.25,1253.08A1009.82,1009.82,0,0,0,438.81,1301L576,1163.82A1011.44,1011.44,0,0,0,740.45,1192.89Z"/></g></g></svg>