<svg id="Layer_1" data-name="Layer 1" xmlns="http://www.w3.org/2000/svg" viewBox="0 0 391.3 358.52"><title>timedance-logo</title><path d="M52.36,144,195.09,1.27a170.22,170.22,0,0,0-56.44,19.22A170.88,170.88,0,0,0,1.27,162.3L66.9,96.67A170.41,170.41,0,0,0,52.36,144Z"/><path d="M59.2,224.47,275.56,8.11A171,171,0,0,0,237,0L213.78,23.23a171.31,171.31,0,0,0-27.86-4.92L0,204.23a171.06,171.06,0,0,0,8.11,38.54L52.67,198.2A170.76,170.76,0,0,0,59.2,224.47Z"/><path d="M90.66,280.32,331.41,39.57a170.2,170.2,0,0,0-27.61-19l-31.2,31.2a169.85,169.85,0,0,0-19.89-12.9L20.52,271a170.22,170.22,0,0,0,19,27.61l37.21-37.21A170.56,170.56,0,0,0,90.66,280.32Z"/><path d="M138.59,319.69,370.78,87.5a170.19,170.19,0,0,0-19-27.61L314.52,97.11A170.53,170.53,0,0,0,300.65,78.2L59.89,319A170.21,170.21,0,0,0,87.5,338l31.2-31.2A169.86,169.86,0,0,0,138.59,319.69Z"/><path d="M205.38,340.21,391.3,154.29a171,171,0,0,0-8.11-38.54l-44.57,44.57a170.73,170.73,0,0,0-6.52-26.26L115.75,350.41a171,171,0,0,0,38.54,8.11l23.23-23.23A171.32,171.32,0,0,0,205.38,340.21Z"/><path d="M338.95,214.52,196.21,357.25A170.22,170.22,0,0,0,252.65,338,170.88,170.88,0,0,0,390,196.21l-65.63,65.63A170.41,170.41,0,0,0,338.95,214.52Z"/></svg>